<svg id="Layer_1" data-name="Layer 1" xmlns="http://www.w3.org/2000/svg" width="800" height="800" viewBox="0 0 800 800"><defs><style>.cls-1{fill:#e84142;}.cls-2{fill:#fff;}.cls-3{fill:none;}</style></defs><title>avalanche-avax-logo-freelogovectors.net_</title><circle class="cls-1" cx="400" cy="400" r="370.92" transform="translate(-165.69 400) rotate(-45)"/><path class="cls-2" d="M287.92,568.05h-87c-20.63,0-30.95,0-37.13-4a24.88,24.88,0,0,1-11.33-19.5c-.42-7.34,4.69-16.29,14.91-34.19h0L357.88,176.59C368.25,158.42,373.44,149.34,380,146a25,25,0,0,1,22.71,0c6.6,3.37,11.8,12.45,22.2,30.6l43.94,76.72h0c7.56,13.2,11.34,19.8,13,26.76a49.78,49.78,0,0,1,0,23.06c-1.66,7-5.43,13.57-13,26.77L355,529.15c-7.65,13.4-11.48,20.1-16.73,25.11A49.85,49.85,0,0,1,318,566C311.09,568.05,303.37,568.05,287.92,568.05Z"/><path class="cls-2" d="M598.37,568.05H497.48c-20.81,0-31.22,0-37.42-4a24.84,24.84,0,0,1-11.29-19.62c-.37-7.38,4.87-16.37,15.35-34.34l50.35-86.4C524.82,405.9,530,397,536.54,393.71a24.91,24.91,0,0,1,22.53,0c6.56,3.31,11.74,12.18,22.11,29.91h0L631.71,510c10.52,18,15.77,27,15.42,34.36A24.9,24.9,0,0,1,635.84,564C629.64,568.05,619.22,568.05,598.37,568.05Z"/><rect class="cls-3" width="800" height="800"/></svg>